HIERARCHY
ROOT Hips
{
	OFFSET 0.00000 0.00000 0.00000
	CHANNELS 6 Xposition Yposition Zposition Zrotation Yrotation Xrotation 
	JOINT LHipJoint
	{
		OFFSET 0 0 0
		CHANNELS 3 Zrotation Yrotation Xrotation
		JOINT LeftUpLeg
		{
			OFFSET 1.46561 -1.72757 0.83774
			CHANNELS 3 Zrotation Yrotation Xrotation
			JOINT LeftLeg
			{
				OFFSET 2.48915 -6.83890 0.00000
				CHANNELS 3 Zrotation Yrotation Xrotation
				JOINT LeftFoot
				{
					OFFSET 2.60555 -7.15868 0.00000
					CHANNELS 3 Zrotation Yrotation Xrotation
					JOINT LeftToeBase
					{
						OFFSET 0.19248 -0.52884 2.26738
						CHANNELS 3 Zrotation Yrotation Xrotation
						End Site
						{
							OFFSET 0.00000 -0.00000 1.17015
						}
					}
				}
			}
		}
	}
	JOINT RHipJoint
	{
		OFFSET 0 0 0
		CHANNELS 3 Zrotation Yrotation Xrotation
		JOINT RightUpLeg
		{
			OFFSET -1.46918 -1.72757 0.83774
			CHANNELS 3 Zrotation Yrotation Xrotation
			JOINT RightLeg
			{
				OFFSET -2.49034 -6.84216 0.00000
				CHANNELS 3 Zrotation Yrotation Xrotation
				JOINT RightFoot
				{
					OFFSET -2.65971 -7.30750 0.00000
					CHANNELS 3 Zrotation Yrotation Xrotation
					JOINT RightToeBase
					{
						OFFSET -0.19227 -0.52827 2.30785
						CHANNELS 3 Zrotation Yrotation Xrotation
						End Site
						{
							OFFSET -0.00000 -0.00000 1.18972
						}
					}
				}
			}
		}
	}
	JOINT LowerBack
	{
		OFFSET 0 0 0
		CHANNELS 3 Zrotation Yrotation Xrotation
		JOINT Spine
		{
			OFFSET 0.02432 2.19909 -0.28000
			CHANNELS 3 Zrotation Yrotation Xrotation
			JOINT Spine1
			{
				OFFSET 0.03714 2.21816 -0.15261
				CHANNELS 3 Zrotation Yrotation Xrotation
				JOINT Neck
				{
					OFFSET 0 0 0
					CHANNELS 3 Zrotation Yrotation Xrotation
					JOINT Neck1
					{
						OFFSET -0.01896 1.56165 0.21681
						CHANNELS 3 Zrotation Yrotation Xrotation
						JOINT Head
						{
							OFFSET 0.02744 1.56009 0.06764
							CHANNELS 3 Zrotation Yrotation Xrotation
							End Site
							{
								OFFSET 0.01212 1.60574 0.00298
							}
						}
					}
				}
				JOINT LeftShoulder
				{
					OFFSET 0 0 0
					CHANNELS 3 Zrotation Yrotation Xrotation
					JOINT LeftArm
					{
						OFFSET 3.05595 1.48048 -0.60794
						CHANNELS 3 Zrotation Yrotation Xrotation
						JOINT LeftForeArm
						{
							OFFSET 5.20607 -0.00000 -0.00000
							CHANNELS 3 Zrotation Yrotation Xrotation
							JOINT LeftHand
							{
								OFFSET 3.39961 -0.00000 0.00000
								CHANNELS 3 Zrotation Yrotation Xrotation
								JOINT LeftFingerBase
								{
									OFFSET 0 0 0
									CHANNELS 3 Zrotation Yrotation Xrotation
									JOINT LeftHandIndex1
									{
										OFFSET 0.51969 -0.00000 0.00000
										CHANNELS 3 Zrotation Yrotation Xrotation
										End Site
										{
											OFFSET 0.41899 -0.00000 0.00000
										}
									}
								}
								JOINT LThumb
								{
									OFFSET 0 0 0
									CHANNELS 3 Zrotation Yrotation Xrotation
									End Site
									{
										OFFSET 0.42539 -0.00000 0.42539
									}
								}
							}
						}
					}
				}
				JOINT RightShoulder
				{
					OFFSET 0 0 0
					CHANNELS 3 Zrotation Yrotation Xrotation
					JOINT RightArm
					{
						OFFSET -2.99052 1.57608 -0.69102
						CHANNELS 3 Zrotation Yrotation Xrotation
						JOINT RightForeArm
						{
							OFFSET -5.32214 -0.00000 0.00000
							CHANNELS 3 Zrotation Yrotation Xrotation
							JOINT RightHand
							{
								OFFSET -3.51208 -0.00000 0.00000
								CHANNELS 3 Zrotation Yrotation Xrotation
								JOINT RightFingerBase
								{
									OFFSET 0 0 0
									CHANNELS 3 Zrotation Yrotation Xrotation
									JOINT RightHandIndex1
									{
										OFFSET -0.58668 -0.00000 0.00000
										CHANNELS 3 Zrotation Yrotation Xrotation
										End Site
										{
											OFFSET -0.47300 -0.00000 0.00000
										}
									}
								}
								JOINT RThumb
								{
									OFFSET 0 0 0
									CHANNELS 3 Zrotation Yrotation Xrotation
									End Site
									{
										OFFSET -0.48022 -0.00000 0.48022
									}
								}
							}
						}
					}
				}
			}
		}
	}
}
MOTION
Frames: 12
Frame Time: .0083333
0.0837 23.0406 -1.7773 -0.2876 2.3471 11.0253 0.0000 0.0000 0.0000 -15.6950 -1.8697 -30.0242 1.1357 6.7680 19.0298 1.0968 2.3761 19.1450 0.0011 -0.2123 -0.5834 0.0000 0.0000 0.0000 19.4384 1.1693 -32.6678 -3.3190 -11.1944 32.9383 -0.7461 -6.9959 15.4501 -0.4725 -4.4088 12.2297 -3.4250 -0.4226 5.6405 1.7956 -0.7043 4.8431 3.8043 -0.4747 1.9040 -2.6859 0.1401 -11.7929 1.5046 0.4148 24.9574 1.0320 0.1104 9.8396 -0.0000 0.0000 0.0000 -75.2121 2.5320 15.3984 7.2488 -12.3280 -0.7839 -0.0000 0.0000 -6.7121 20.3930 -4.6212 -1.7156 -7.1250 0.0000 -0.0000 -4.7010 25.0502 2.2756 -0.0000 0.0000 0.0000 83.5200 -3.5489 16.1901 -15.5200 24.8656 -3.4417 0.0000 0.0000 37.7066 -17.5791 -24.5656 7.5033 7.1250 -0.0000 -0.0000 12.7246 -55.1439 -3.2075
0.0856 22.9502 -1.5819 -0.2334 2.3829 11.0973 0.0000 0.0000 0.0000 -15.9004 -1.7713 -30.8103 1.0705 6.5774 18.4692 1.0596 2.4679 18.7873 0.0003 -0.1116 -0.3065 0.0000 0.0000 0.0000 19.1913 1.6470 -32.6257 -2.8645 -10.4725 30.5207 -0.7155 -7.1535 15.1538 -0.4708 -4.4007 12.2067 -3.3785 -0.4257 5.7462 1.7847 -0.7096 4.8387 3.7682 -0.4744 1.8401 -2.7037 0.1356 -12.0344 1.5082 0.4184 25.2280 1.0403 0.1094 9.9832 0.0000 -0.0000 0.0000 -74.9592 2.7931 15.4028 7.2144 -12.2716 -0.7766 -0.0000 0.0000 -7.0573 20.7041 -4.7828 -1.8050 -7.1250 0.0000 -0.0000 -4.4651 24.8683 2.1797 0.0000 -0.0000 0.0000 83.4200 -3.8396 16.4837 -15.5115 24.8538 -3.4381 0.0000 0.0000 37.6194 -17.5597 -24.6709 7.5244 7.1250 -0.0000 -0.0000 12.7950 -55.2448 -3.2573
0.0874 22.8480 -1.3879 -0.2357 2.4574 11.1672 0.0000 0.0000 0.0000 -16.0250 -1.7256 -31.5953 1.0198 6.4245 18.0211 1.0022 2.4523 18.2566 0.0000 -0.0256 -0.0702 0.0000 0.0000 0.0000 18.9935 2.0867 -32.6306 -2.4641 -9.7724 28.2428 -0.6625 -7.4070 14.6347 -0.4667 -4.3817 12.1530 -3.2647 -0.4344 5.8571 1.7870 -0.7196 4.8309 3.7080 -0.4747 1.7690 -2.7338 0.1256 -12.2291 1.5424 0.4080 25.4522 1.0591 0.1045 10.1019 0.0000 -0.0000 0.0000 -74.6945 3.0417 15.3743 7.1518 -12.1689 -0.7633 -0.0000 0.0000 -7.2623 20.9714 -4.9721 -1.9027 -7.1250 0.0000 -0.0000 -4.2625 24.6574 2.1011 0.0000 -0.0000 0.0000 83.3368 -4.1364 16.7553 -15.5226 24.8691 -3.4427 0.0000 0.0000 37.5101 -17.5617 -24.7876 7.5583 7.1250 -0.0000 -0.0000 12.8495 -55.3611 -3.3081
0.0891 22.7338 -1.1960 -0.2771 2.5695 11.2265 0.0000 0.0000 0.0000 -16.0777 -1.7509 -32.3416 0.9780 6.2954 17.6440 0.9312 2.3164 17.6029 0.0000 0.0438 0.1204 0.0000 0.0000 0.0000 18.8315 2.4695 -32.6959 -2.1174 -9.1065 26.1291 -0.5949 -7.7928 13.9733 -0.4587 -4.3448 12.0487 -3.1015 -0.4484 5.9880 1.7973 -0.7349 4.8221 3.6286 -0.4763 1.6855 -2.7585 0.1068 -12.3969 1.5895 0.3797 25.6443 1.0792 0.0936 10.2046 0.0000 0.0000 0.0000 -74.4225 3.2860 15.3281 7.0718 -12.0373 -0.7465 -0.0000 0.0000 -7.3123 21.1639 -5.1672 -1.9970 -7.1250 0.0000 -0.0000 -4.1166 24.4420 2.0494 0.0000 0.0000 0.0000 83.2782 -4.4321 17.0015 -15.5533 24.9113 -3.4557 0.0000 0.0000 37.3619 -17.5897 -24.9150 7.6070 7.1250 -0.0000 -0.0000 12.8834 -55.4932 -3.3586
0.0902 22.6074 -1.0065 -0.3498 2.6981 11.2734 0.0000 0.0000 0.0000 -16.0593 -1.8419 -33.0319 0.9407 6.1777 17.3008 0.8572 2.0966 16.9117 0.0002 0.0818 0.2246 0.0000 0.0000 0.0000 18.6966 2.8120 -32.8281 -1.8222 -8.4855 24.1987 -0.5210 -8.3266 13.2676 -0.4529 -4.3174 11.9714 -2.9119 -0.4625 6.1356 1.8162 -0.7489 4.8242 3.5435 -0.4771 1.6037 -2.7809 0.0846 -12.5387 1.6440 0.3435 25.7792 1.0998 0.0807 10.2819 -0.0000 0.0000 0.0000 -74.1518 3.5140 15.2888 6.9895 -11.9020 -0.7295 -0.0000 0.0000 -7.2719 21.2698 -5.3433 -2.0761 -7.1250 0.0000 -0.0000 -4.0363 24.2498 2.0272 -0.0000 0.0000 0.0000 83.2462 -4.7085 17.2179 -15.6113 24.9908 -3.4801 0.0000 0.0000 37.1611 -17.6416 -25.0430 7.6669 7.1250 -0.0000 -0.0000 12.8931 -55.6308 -3.4046
0.0907 22.4686 -0.8196 -0.4379 2.8361 11.2970 0.0000 0.0000 0.0000 -15.9890 -1.9790 -33.6488 0.9044 6.0603 16.9596 0.7921 1.8308 16.2946 0.0001 0.0717 0.1970 0.0000 0.0000 0.0000 18.5704 3.1189 -33.0203 -1.5756 -7.9196 22.4701 -0.4475 -8.9775 12.6026 -0.4543 -4.3241 11.9903 -2.7143 -0.4748 6.3076 1.8383 -0.7599 4.8413 3.4574 -0.4766 1.5236 -2.7991 0.0617 -12.6457 1.7045 0.3027 25.8527 1.1206 0.0672 10.3304 -0.0000 -0.0000 0.0000 -73.8869 3.7390 15.2852 6.9293 -11.8029 -0.7171 -0.0000 0.0000 -7.2373 21.3020 -5.4117 -2.1061 -7.1250 0.0000 -0.0000 -4.0118 24.1754 2.0218 -0.0000 -0.0000 0.0000 83.2505 -4.9706 17.3837 -15.7010 25.1136 -3.5181 0.0000 0.0000 36.9050 -17.7145 -25.1517 7.7311 7.1250 -0.0000 -0.0000 12.8723 -55.7535 -3.4375
0.0904 22.3174 -0.6349 -0.5307 2.9662 11.2875 0.0000 0.0000 0.0000 -15.8841 -2.1346 -34.1889 0.8673 5.9382 16.6052 0.7449 1.5604 15.8503 0.0000 0.0212 0.0583 0.0000 0.0000 0.0000 18.4348 3.4123 -33.2544 -1.3728 -7.4148 20.9501 -0.3785 -9.7215 12.0435 -0.4669 -4.3828 12.1560 -2.5221 -0.4819 6.5128 1.8589 -0.7642 4.8774 3.3729 -0.4732 1.4444 -2.7905 0.0425 -12.7483 1.7461 0.2657 25.8874 1.1301 0.0561 10.3639 0.0000 -0.0000 0.0000 -73.6340 3.9645 15.3373 6.9022 -11.7582 -0.7116 -0.0000 0.0000 -7.3150 21.2714 -5.3926 -2.0954 -7.1250 0.0000 -0.0000 -4.0348 24.1970 2.0314 0.0000 -0.0000 0.0000 83.2936 -5.2160 17.4976 -15.8259 25.2841 -3.5713 0.0000 0.0000 36.5902 -17.8045 -25.2443 7.7990 7.1250 -0.0000 -0.0000 12.8256 -55.8637 -3.4592
0.0891 22.1534 -0.4524 -0.6172 3.0675 11.2373 0.0000 0.0000 0.0000 -15.7561 -2.2938 -34.6516 0.8291 5.8091 16.2316 0.7224 1.3363 15.6582 0.0001 -0.0655 -0.1800 0.0000 0.0000 0.0000 18.2674 3.7323 -33.5055 -1.2089 -6.9752 19.6420 -0.3141 -10.5366 11.6043 -0.4910 -4.4928 12.4673 -2.3525 -0.4764 6.7597 1.8740 -0.7527 4.9291 3.2951 -0.4626 1.3575 -2.7669 0.0246 -12.8275 1.7768 0.2291 25.8866 1.1328 0.0456 10.3799 0.0000 0.0000 0.0000 -73.3994 4.1970 15.4288 6.9110 -11.7726 -0.7134 -0.0000 0.0000 -7.5706 21.2204 -5.2655 -2.0408 -7.1250 0.0000 -0.0000 -4.0737 24.3349 2.0381 0.0000 0.0000 0.0000 83.3724 -5.4651 17.5812 -15.9965 25.5158 -3.6444 0.0000 0.0000 36.2036 -17.9039 -25.3290 7.8692 7.1250 -0.0000 -0.0000 12.7654 -55.9680 -3.4751
0.0875 21.9766 -0.2710 -0.6966 3.1267 11.1419 0.0000 0.0000 0.0000 -15.6126 -2.4388 -35.0404 0.7907 5.6763 15.8482 0.7285 1.1840 15.7667 0.0007 -0.1725 -0.4739 0.0000 0.0000 0.0000 18.0753 4.0613 -33.7600 -1.0789 -6.6023 18.5422 -0.2572 -11.3694 11.3095 -0.5277 -4.6552 12.9276 -2.1983 -0.4557 7.0299 1.8785 -0.7213 5.0008 3.2140 -0.4427 1.2775 -2.7258 0.0103 -12.8913 1.7929 0.1970 25.8624 1.1275 0.0372 10.3843 0.0000 -0.0000 0.0000 -73.1884 4.4232 15.5212 6.9436 -11.8264 -0.7200 -0.0000 0.0000 -7.9874 21.1574 -5.1047 -1.9722 -7.1250 0.0000 -0.0000 -4.1220 24.5091 2.0457 0.0000 -0.0000 0.0000 83.4888 -5.7097 17.6296 -16.2043 25.7968 -3.7344 0.0000 0.0000 35.7729 -18.0104 -25.4010 7.9393 7.1250 -0.0000 -0.0000 12.6913 -56.0612 -3.4833
0.0854 21.7864 -0.0902 -0.7558 3.1283 10.9984 0.0000 0.0000 0.0000 -15.4535 -2.5895 -35.3503 0.7540 5.5458 15.4721 0.7637 1.1719 16.1551 0.0020 -0.2852 -0.7837 0.0000 0.0000 0.0000 17.8487 4.4098 -33.9993 -0.9784 -6.2965 17.6473 -0.2069 -12.2107 11.1493 -0.5774 -4.8658 13.5261 -2.0757 -0.4152 7.3321 1.8677 -0.6651 5.0809 3.1336 -0.4110 1.1875 -2.6772 -0.0069 -12.9290 1.8056 0.1592 25.8346 1.1190 0.0266 10.3824 -0.0000 0.0000 0.0000 -73.0062 4.6481 15.5817 6.9810 -11.8880 -0.7277 -0.0000 0.0000 -8.4917 21.1189 -4.9608 -1.9130 -7.1250 0.0000 -0.0000 -4.1523 24.6641 2.0459 -0.0000 0.0000 0.0000 83.6353 -5.9601 17.6670 -16.4385 26.1117 -3.8369 0.0000 0.0000 35.3206 -18.1134 -25.4724 8.0079 7.1250 -0.0000 -0.0000 12.6206 -56.1533 -3.4918
0.0832 21.5824 0.0912 -0.8032 3.0603 10.8169 0.0000 0.0000 0.0000 -15.2613 -2.7559 -35.5916 0.7211 5.4262 15.1281 0.8260 1.3486 16.7694 0.0039 -0.4033 -1.1082 0.0000 0.0000 0.0000 17.6196 4.7515 -34.2275 -0.9038 -6.0584 16.9539 -0.1652 -13.0333 11.1260 -0.6421 -5.1265 14.2697 -1.9773 -0.3512 7.6322 1.8413 -0.5784 5.1737 3.0483 -0.3648 1.1104 -2.6405 -0.0278 -12.9318 1.8392 0.1124 25.7914 1.1184 0.0131 10.3683 -0.0000 -0.0000 0.0000 -72.8513 4.8410 15.5700 7.0037 -11.9254 -0.7324 -0.0000 0.0000 -8.9837 21.1226 -4.8717 -1.8791 -7.1250 0.0000 -0.0000 -4.1504 24.7591 2.0358 -0.0000 -0.0000 0.0000 83.8097 -6.1994 17.7109 -16.6918 26.4497 -3.9491 0.0000 0.0000 34.8639 -18.2164 -25.5370 8.0748 7.1250 -0.0000 -0.0000 12.5464 -56.2388 -3.4969
0.0817 21.3643 0.2751 -0.8370 2.9291 10.5985 0.0000 0.0000 0.0000 -15.0435 -2.9364 -35.7610 0.6943 5.3265 14.8422 0.9085 1.7172 17.5149 0.0063 -0.5107 -1.4034 0.0000 0.0000 0.0000 17.4251 5.0100 -34.4533 -0.8532 -5.8909 16.4683 -0.1384 -13.7673 11.2581 -0.7211 -5.4262 15.1283 -1.8981 -0.2717 7.9101 1.8001 -0.4719 5.2693 2.9564 -0.3092 1.0478 -2.6162 -0.0513 -12.8874 1.8896 0.0592 25.7578 1.1250 -0.0028 10.3485 0.0000 -0.0000 0.0000 -72.7403 5.0272 15.4394 7.0043 -11.9262 -0.7325 -0.0000 0.0000 -9.3363 21.1652 -4.8189 -1.8629 -7.1250 0.0000 -0.0000 -4.1192 24.8141 2.0151 0.0000 -0.0000 0.0000 83.9978 -6.4389 17.7874 -16.9513 26.7935 -4.0654 0.0000 0.0000 34.4238 -18.3136 -25.5928 8.1367 7.1250 -0.0000 -0.0000 12.4735 -56.3143 -3.4991
